HIERARCHY
ROOT Hips
{
 OFFSET 0.000000 0.000000 0.000000
 CHANNELS 6 Xposition Yposition Zposition Yrotation Xrotation Zrotation
 JOINT Chest
 {
  OFFSET 0.000000 9.588913 -0.003946
  CHANNELS 3 Yrotation Xrotation Zrotation
  JOINT Chest2
  {
   OFFSET 0.000000 9.541882 0.008053
   CHANNELS 3 Yrotation Xrotation Zrotation
   JOINT Chest3
   {
    OFFSET 0.000000 9.501360 0.000000
    CHANNELS 3 Yrotation Xrotation Zrotation
    JOINT Chest4
    {
     OFFSET 0.000000 9.491660 0.000000
     CHANNELS 3 Yrotation Xrotation Zrotation
     JOINT Neck
     {
      OFFSET 0.000000 14.331917 0.000000
      CHANNELS 3 Yrotation Xrotation Zrotation
      JOINT Head
      {
       OFFSET 0.000000 8.884799 0.017034
       CHANNELS 3 Yrotation Xrotation Zrotation
       End Site
       {
        OFFSET 0.000000 16.896195 0.008993
       }
      }
     }
     JOINT RightCollar
     {
      OFFSET -2.923010 9.499495 0.000000
      CHANNELS 3 Yrotation Xrotation Zrotation
      JOINT RightShoulder
      {
       OFFSET -13.795216 0.000000 0.000000
       CHANNELS 3 Yrotation Xrotation Zrotation
       JOINT RightElbow
       {
        OFFSET -30.272209 0.000000 0.000000
        CHANNELS 3 Yrotation Xrotation Zrotation
        JOINT RightWrist
        {
         OFFSET -24.478199 0.000000 0.000000
         CHANNELS 3 Yrotation Xrotation Zrotation
         End Site
         {
          OFFSET -18.090752 0.000000 0.000000
         }
        }
       }
      }
     }
     JOINT LeftCollar
     {
      OFFSET 2.923010 9.499495 0.000000
      CHANNELS 3 Yrotation Xrotation Zrotation
      JOINT LeftShoulder
      {
       OFFSET 13.795216 0.000000 0.000000
       CHANNELS 3 Yrotation Xrotation Zrotation
       JOINT LeftElbow
       {
        OFFSET 30.272209 0.000000 0.000000
        CHANNELS 3 Yrotation Xrotation Zrotation
        JOINT LeftWrist
        {
         OFFSET 24.478199 0.000000 0.000000
         CHANNELS 3 Yrotation Xrotation Zrotation
         End Site
         {
          OFFSET 18.090752 0.000000 0.000000
         }
        }
       }
      }
     }
    }
   }
  }
 }
 JOINT RightHip
 {
  OFFSET -7.826875 0.019532 0.001973
  CHANNELS 3 Yrotation Xrotation Zrotation
  JOINT RightKnee
  {
   OFFSET 0.000000 -40.546152 -0.001885
   CHANNELS 3 Yrotation Xrotation Zrotation
   JOINT RightAnkle
   {
    OFFSET 0.000000 -39.417092 -0.003189
    CHANNELS 3 Yrotation Xrotation Zrotation
    JOINT RightToe
    {
     OFFSET 0.000000 -7.579396 17.243563
     CHANNELS 3 Yrotation Xrotation Zrotation
     End Site
     {
      OFFSET 0.000000 -1.500329 6.694466
     }
    }
   }
  }
 }
 JOINT LeftHip
 {
  OFFSET 7.826875 0.019532 0.001973
  CHANNELS 3 Yrotation Xrotation Zrotation
  JOINT LeftKnee
  {
   OFFSET 0.000000 -40.546152 -0.001885
   CHANNELS 3 Yrotation Xrotation Zrotation
   JOINT LeftAnkle
   {
    OFFSET 0.000000 -39.417092 -0.003189
    CHANNELS 3 Yrotation Xrotation Zrotation
    JOINT LeftToe
    {
     OFFSET 0.000000 -7.579396 17.243563
     CHANNELS 3 Yrotation Xrotation Zrotation
     End Site
     {
      OFFSET 0.000000 -1.500329 6.694466
     }
    }
   }
  }
 }
}
MOTION
Frames: 7
Frame Time: 0.008333
0.000000 87.345680 0.000000 0.000000 -5.767889 0.000000 0.000000 11.653876 0.000000 0.000000 -5.885988 0.000000 0.000000 -0.000000 0.000000 0.000000 -0.000000 0.000000 0.000000 12.528808 0.000000 0.000000 0.711711 0.000000 0.000000 -0.000000 0.000000 0.000000 -0.000000 0.000000 2.309063 -0.000000 0.000000 -2.309063 -0.000000 -0.000000 0.000000 -0.000000 0.000000 0.000000 0.000000 0.000000 -2.309063 0.000000 0.000000 2.309063 -0.000000 0.000000 0.000000 8.520374 0.000000 0.000000 1.905768 0.000000 -0.000000 -4.658254 0.000000 0.000000 -0.000000 0.000000 0.000000 8.520374 0.000000 0.000000 1.905768 0.000000 -0.000000 -4.658254 0.000000 0.000000 -0.000000 0.000000
7.399221 34.509129 7.384040 -51.583394 -25.959827 -2.248769 4.159640 22.104999 5.059055 2.111445 12.652350 2.405420 2.741836 15.799902 3.101099 2.111445 12.652350 2.405420 0.861662 15.480654 -5.589100 2.213947 -9.326407 -6.190817 2.034054 -12.702500 -9.961581 24.970077 -34.569718 70.164480 39.078710 10.418571 2.247675 -21.488722 0.336778 0.242583 -17.278180 -12.103246 4.363423 -3.305836 -33.820456 -90.502267 -40.405393 6.225146 -18.046016 10.848782 7.132164 14.293385 19.094595 -54.954175 -26.745825 170.103220 38.809833 -178.058068 6.003612 -51.356199 -3.171549 -0.028781 0.343585 0.011319 3.929115 -61.627666 11.422983 153.136198 31.625187 176.171688 18.804475 -39.820358 -26.411517 0.063759 -0.793975 0.096021
7.402319 34.515120 7.381811 -51.581937 -25.946641 -2.241409 4.160257 22.102746 5.057132 2.113033 12.652215 2.406095 2.743855 15.799718 3.102003 2.113033 12.652215 2.406095 0.875349 15.498543 -5.582667 2.227072 -9.307257 -6.187013 2.034146 -12.701824 -9.969621 24.965201 -34.569314 70.175208 39.089813 10.402535 2.264599 -21.489153 0.336026 0.235686 -17.272055 -12.103097 4.361667 -3.317072 -33.824076 -90.495347 -40.408911 6.237338 -18.040626 10.846040 7.123683 14.280772 19.116523 -54.965846 -26.757019 170.107834 38.818943 -178.062385 5.986930 -51.350886 -3.147238 -0.028059 0.340461 0.005337 3.930673 -61.637666 11.430913 153.159293 31.641934 176.175757 18.796311 -39.826412 -26.399431 0.059718 -0.797075 0.090502
7.404822 34.522168 7.379468 -51.580512 -25.937076 -2.235014 4.163595 22.101825 5.058451 2.115004 12.652297 2.406993 2.746367 15.799800 3.103204 2.115004 12.652297 2.406993 0.889928 15.515567 -5.577628 2.241504 -9.288940 -6.184993 2.031550 -12.700669 -9.980075 24.955409 -34.569707 70.188120 39.098016 10.396421 2.275898 -21.508813 0.335826 0.222010 -17.273676 -12.103984 4.361992 -3.326961 -33.826416 -90.487564 -40.411134 6.238674 -18.033283 10.848771 7.121030 14.265333 19.134135 -54.973920 -26.764041 170.110027 38.828636 -178.066613 5.967793 -51.343354 -3.126509 -0.026996 0.336073 0.002712 3.918393 -61.642236 11.455129 153.184516 31.659803 176.178526 18.780345 -39.832568 -26.384930 0.059702 -0.799818 0.086384
7.406523 34.530053 7.377506 -51.578284 -25.933342 -2.228375 4.171408 22.103681 5.062577 2.116937 12.652433 2.408113 2.748840 15.799949 3.104683 2.116937 12.652433 2.408113 0.905264 15.532607 -5.573007 2.256855 -9.270562 -6.183632 2.021578 -12.700040 -9.986432 24.953814 -34.568409 70.192744 39.101743 10.397205 2.275910 -21.543734 0.338570 0.210300 -17.280150 -12.104354 4.361244 -3.338480 -33.830445 -90.477709 -40.409628 6.231569 -18.025124 10.868552 7.124452 14.247638 19.145790 -54.974078 -26.767219 170.111915 38.838478 -178.066942 5.943188 -51.337201 -3.108883 -0.026767 0.331636 0.003909 3.896628 -61.635475 11.490743 153.216395 31.679205 176.181126 18.767051 -39.844654 -26.373488 0.064230 -0.798351 0.084449
7.407937 34.538102 7.375577 -51.574673 -25.930523 -2.221669 4.180467 22.105971 5.067031 2.119160 12.652514 2.409273 2.751679 15.800026 3.106222 2.119160 12.652514 2.409273 0.920343 15.549242 -5.567839 2.271799 -9.252646 -6.181600 2.006779 -12.701896 -9.986685 24.963760 -34.564316 70.187975 39.101123 10.401478 2.263287 -21.582866 0.343917 0.205192 -17.287385 -12.104841 4.359686 -3.351714 -33.835161 -90.465429 -40.406083 6.213138 -18.020115 10.908937 7.134370 14.230891 19.152802 -54.970928 -26.770905 170.115629 38.848794 -178.065567 5.927938 -51.333958 -3.102965 -0.026627 0.328976 0.008130 3.878049 -61.625805 11.521497 153.245838 31.699287 176.183077 18.756768 -39.857946 -26.366387 0.069358 -0.794565 0.084033
7.409314 34.545911 7.373509 -51.568987 -25.925985 -2.215718 4.187558 22.107036 5.070085 2.121466 12.652500 2.410646 2.754627 15.799982 3.108031 2.121466 12.652500 2.410646 0.933975 15.565473 -5.562185 2.285064 -9.235216 -6.178668 1.992698 -12.704949 -9.984286 24.978407 -34.558859 70.181318 39.096930 10.404714 2.239391 -21.611139 0.352096 0.202759 -17.292495 -12.104922 4.357624 -3.363063 -33.840813 -90.456486 -40.397498 6.180107 -18.018102 10.963225 7.147064 14.216914 19.152353 -54.968686 -26.772814 170.121715 38.859638 -178.065514 5.922902 -51.333746 -3.107373 -0.025744 0.328299 0.013358 3.868116 -61.619565 11.539575 153.267460 31.718388 176.184777 18.746373 -39.867794 -26.361607 0.070102 -0.792427 0.083931
